<svg xmlns="http://www.w3.org/2000/svg" width="132" height="132" viewBox="0 0 132 132" fill="none">
  <g clip-path="url(#clip0_1_43)">
    <path d="M90.75 8.25C92.938 8.25 95.0365 9.11919 96.5836 10.6664C98.1308 12.2135 99 14.312 99 16.5V115.5C99 117.688 98.1308 119.786 96.5836 121.334C95.0365 122.881 92.938 123.75 90.75 123.75H41.25C39.062 123.75 36.9635 122.881 35.4164 121.334C33.8692 119.786 33 117.688 33 115.5V16.5C33 14.312 33.8692 12.2135 35.4164 10.6664C36.9635 9.11919 39.062 8.25 41.25 8.25H90.75ZM41.25 0C36.8739 0 32.6771 1.73839 29.5827 4.83274C26.4884 7.92709 24.75 12.1239 24.75 16.5V115.5C24.75 119.876 26.4884 124.073 29.5827 127.167C32.6771 130.262 36.8739 132 41.25 132H90.75C95.1261 132 99.3229 130.262 102.417 127.167C105.512 124.073 107.25 119.876 107.25 115.5V16.5C107.25 12.1239 105.512 7.92709 102.417 4.83274C99.3229 1.73839 95.1261 0 90.75 0L41.25 0Z" fill="#4A55A2"/>
    <path d="M66 115.5C68.188 115.5 70.2865 114.631 71.8336 113.084C73.3808 111.536 74.25 109.438 74.25 107.25C74.25 105.062 73.3808 102.964 71.8336 101.416C70.2865 99.8692 68.188 99 66 99C63.812 99 61.7135 99.8692 60.1664 101.416C58.6192 102.964 57.75 105.062 57.75 107.25C57.75 109.438 58.6192 111.536 60.1664 113.084C61.7135 114.631 63.812 115.5 66 115.5Z" fill="#4A55A2"/>
  </g>
  <defs>
    <clipPath id="clip0_1_43">
      <rect width="132" height="132" fill="white"/>
    </clipPath>
  </defs>
</svg>