<svg xmlns="http://www.w3.org/2000/svg" width="103" height="104" viewBox="0 0 103 104" fill="none">
  <g clip-path="url(#clip0_1_24)">
    <path d="M78.4019 0H24.3496C11.1795 0 0.50296 10.9013 0.50296 24.3486V79.5389C0.50296 92.9863 11.1795 103.888 24.3496 103.888H78.4019C91.572 103.888 102.249 92.9863 102.249 79.5389V24.3486C102.249 10.9013 91.572 0 78.4019 0Z" fill="#242938"/>
    <mask id="mask0_1_24" style="mask-type:luminance" maskUnits="userSpaceOnUse" x="24" y="11" width="54" height="82">
      <path d="M24.747 11.3627H77.7501V92.5248H24.747V11.3627Z" fill="white"/>
    </mask>
    <g mask="url(#mask0_1_24)">
      <path d="M38.0006 92.5249C45.3136 92.5249 51.2486 86.4649 51.2486 78.998V65.4707H38.0006C30.6876 65.4707 24.7522 71.5311 24.7522 78.998C24.7522 86.4649 30.6876 92.5249 38.0006 92.5249Z" fill="#0ACF83"/>
      <path d="M24.7522 51.9438C24.7522 44.4768 30.6876 38.4169 38.0006 38.4169H51.2486V65.4707H38.0006C30.6876 65.4707 24.7522 59.4107 24.7522 51.9438Z" fill="#A259FF"/>
      <path d="M24.7522 24.8896C24.7522 17.4226 30.6876 11.3627 38.0006 11.3627H51.2486V38.4169H38.0006C30.6876 38.4169 24.7522 32.3565 24.7522 24.8896Z" fill="#F24E1E"/>
      <path d="M51.2486 11.3627H64.4966C71.8095 11.3627 77.745 17.4226 77.745 24.8896C77.745 32.3565 71.8095 38.4169 64.4966 38.4169H51.2486V11.3627Z" fill="#FF7262"/>
      <path d="M77.745 51.9438C77.745 59.4107 71.8095 65.4707 64.4966 65.4707C57.1836 65.4707 51.2486 59.4107 51.2486 51.9438C51.2486 44.4768 57.1836 38.4169 64.4966 38.4169C71.8095 38.4169 77.745 44.4768 77.745 51.9438Z" fill="#1ABCFE"/>
    </g>
  </g>
  <defs>
    <clipPath id="clip0_1_24">
      <rect width="101.746" height="103.888" fill="white" transform="translate(0.50296)"/>
    </clipPath>
  </defs>
</svg>