<svg xmlns="http://www.w3.org/2000/svg" width="105" height="104" viewBox="0 0 105 104" fill="none">
  <g clip-path="url(#clip0_1_20)">
    <path d="M80.178 0H24.9877C11.5403 0 0.639038 10.9013 0.639038 24.3486V79.5389C0.639038 92.9863 11.5403 103.888 24.9877 103.888H80.178C93.6254 103.888 104.527 92.9863 104.527 79.5389V24.3486C104.527 10.9013 93.6254 0 80.178 0Z" fill="#001E36"/>
    <path d="M24.0137 72.2507V27.7089C24.0137 27.4057 24.1436 27.2329 24.4467 27.2329C25.1825 27.2329 25.8752 27.2329 26.8706 27.1894C27.9095 27.146 28.9918 27.146 30.1606 27.103C31.3293 27.0596 32.5845 27.0596 33.9265 27.0162C35.2681 26.9731 36.5667 26.9731 37.8653 26.9731C41.4149 26.9731 44.3582 27.4057 46.7826 28.3148C48.9555 29.0527 50.9369 30.2653 52.5828 31.8644C53.9776 33.2638 55.0553 34.9467 55.7429 36.799C56.3922 38.6171 56.7383 40.4785 56.7383 42.4264C56.7383 46.1489 55.8727 49.2221 54.1411 51.6464C52.4095 54.0703 49.9856 55.8884 47.1721 56.9273C44.2284 58.0096 40.9819 58.3991 37.4327 58.3991C36.3938 58.3991 35.7011 58.3991 35.2681 58.3557C34.8355 58.3123 34.2292 58.3123 33.407 58.3123V72.2073C33.4501 72.5104 33.2338 72.7701 32.9306 72.8135H24.5332C24.187 72.8135 24.0137 72.6403 24.0137 72.2507ZM33.4501 35.5869V50.1311C34.0563 50.1746 34.6188 50.218 35.1382 50.218H37.4327C39.1209 50.218 40.809 49.9583 42.4104 49.4388C43.7958 49.0493 45.0075 48.2267 45.96 47.1444C46.869 46.0625 47.302 44.5906 47.302 42.6861C47.3426 41.3334 46.9972 39.997 46.3061 38.8334C45.5704 37.7081 44.5315 36.8425 43.2764 36.366C41.6746 35.7167 39.943 35.457 38.1684 35.5004C37.0431 35.5004 36.0472 35.5004 35.2251 35.5439C34.3591 35.5004 33.7532 35.5439 33.4501 35.5869ZM83.7491 47.4909C82.4505 46.7982 81.0655 46.3222 79.5936 46.0191C77.9918 45.6729 76.3905 45.4562 74.7454 45.4562C73.8798 45.4132 72.9708 45.543 72.1482 45.7593C71.5857 45.8892 71.1093 46.1923 70.8066 46.6249C70.5899 46.9715 70.46 47.4041 70.46 47.7937C70.46 48.1833 70.6333 48.5728 70.893 48.9194C71.2826 49.3954 71.802 49.785 72.3649 50.0881C73.3684 50.6079 74.3938 51.0845 75.4381 51.5166C77.7756 52.2957 80.0266 53.3776 82.1043 54.6762C83.5328 55.5852 84.7015 56.7974 85.5237 58.2693C86.2164 59.6543 86.5626 61.1692 86.5196 62.7275C86.5626 64.7622 85.9567 66.7966 84.8314 68.4847C83.624 70.2127 81.9392 71.5514 79.9832 72.3371C77.862 73.2461 75.2648 73.7226 72.1482 73.7226C70.1573 73.7226 68.2094 73.5493 66.2615 73.1597C64.7348 72.896 63.25 72.4302 61.8463 71.7747C61.5431 71.6014 61.3268 71.2982 61.3698 70.9521V63.4202C61.3698 63.2904 61.4133 63.1171 61.5431 63.0307C61.673 62.9442 61.8028 62.9872 61.9327 63.0741C63.6209 64.0695 65.3955 64.7622 67.3004 65.1948C68.9451 65.6278 70.6767 65.8441 72.4079 65.8441C74.053 65.8441 75.2218 65.6278 76.0009 65.2383C76.6933 64.9351 77.1697 64.1994 77.1697 63.4202C77.1697 62.8144 76.8231 62.2515 76.1308 61.6886C75.4381 61.1262 74.0096 60.4769 71.8885 59.6543C69.7126 58.8876 67.6463 57.8399 65.742 56.5377C64.3856 55.5709 63.2618 54.3139 62.4521 52.8582C61.7594 51.4732 61.4133 49.9583 61.4567 48.443C61.4567 46.5819 61.9761 44.8069 62.9282 43.2056C64.0104 41.474 65.6122 40.0889 67.4732 39.2229C69.508 38.1841 72.0617 37.7081 75.1349 37.7081C76.91 37.7081 78.728 37.8379 80.5026 38.0976C81.8012 38.2709 83.0564 38.6171 84.2251 39.0931C84.3984 39.1365 84.5717 39.3098 84.6581 39.4827C84.7015 39.6559 84.7445 39.8292 84.7445 40.0021V47.0579C84.7445 47.2312 84.6581 47.4041 84.5282 47.4909C84.1387 47.5774 83.9224 47.5774 83.7491 47.4909Z" fill="#31A8FF"/>
  </g>
  <defs>
    <clipPath id="clip0_1_20">
      <rect width="103.888" height="103.888" fill="white" transform="translate(0.639038)"/>
    </clipPath>
  </defs>
</svg>