<svg xmlns="http://www.w3.org/2000/svg" width="105" height="104" viewBox="0 0 105 104" fill="none">
  <g clip-path="url(#clip0_1_54)">
    <path d="M80.3377 0H25.1475C11.7001 0 0.798813 10.9013 0.798813 24.3486V79.5389C0.798813 92.9863 11.7001 103.888 25.1475 103.888H80.3377C93.7851 103.888 104.686 92.9863 104.686 79.5389V24.3486C104.686 10.9013 93.7851 0 80.3377 0Z" fill="#330000"/>
    <path d="M51.011 61.8184H34.9084L31.6185 71.9908C31.5321 72.3804 31.1859 72.6401 30.7963 72.5967H22.6582C22.1822 72.5967 22.0523 72.337 22.1822 71.8175L36.1206 31.691C36.2504 31.2584 36.3803 30.782 36.5532 30.2625C36.7265 29.3535 36.8129 28.4015 36.8129 27.449C36.7699 27.2327 36.9427 27.016 37.1594 26.973H48.3704C48.7169 26.973 48.8898 27.1029 48.9332 27.3192L64.7327 71.9044C64.8625 72.3804 64.7327 72.5967 64.3001 72.5967H55.2529C54.9502 72.6401 54.6471 72.4238 54.5606 72.1207L51.011 61.8184ZM37.4192 53.0313H48.4138C48.1541 52.1223 47.8079 51.04 47.4183 49.9147C47.0288 48.746 46.6392 47.4908 46.2496 46.1922C45.8166 44.8502 45.427 43.5516 44.994 42.2096C44.5614 40.868 44.1719 39.6124 43.8253 38.3572C43.4791 37.1455 43.176 36.0198 42.8733 34.9809H42.7864C42.3968 36.8423 41.9208 38.7038 41.315 40.5648C40.6657 42.6426 40.0164 44.8068 39.3236 46.9714C38.7646 49.0144 38.1293 51.0358 37.4192 53.0313ZM74.3857 34.5479C72.9572 34.5913 71.5722 34.0284 70.5333 33.033C69.5379 31.9507 69.0184 30.5222 69.0615 29.0508C69.0184 27.5789 69.5809 26.1939 70.6198 25.198C71.6586 24.2025 73.0441 23.6831 74.4725 23.6831C76.1607 23.6831 77.4593 24.2025 78.4113 25.198C79.3707 26.2475 79.8831 27.6296 79.8398 29.0508C79.8832 30.5222 79.3638 31.9507 78.3249 33.033C77.3294 34.0719 75.8576 34.6347 74.3857 34.5479ZM69.5379 72.1207V38.7902C69.5379 38.3572 69.7108 38.1839 70.1003 38.1839H78.6711C79.0606 38.1839 79.2339 38.4006 79.2339 38.7902V72.1207C79.2339 72.5967 79.0606 72.8134 78.6711 72.8134H70.1872C69.7542 72.8134 69.5379 72.5537 69.5379 72.1207Z" fill="#FF9A00"/>
  </g>
  <defs>
    <clipPath id="clip0_1_54">
      <rect width="103.888" height="103.888" fill="white" transform="translate(0.798813)"/>
    </clipPath>
  </defs>
</svg>