<svg xmlns="http://www.w3.org/2000/svg" width="40" height="41" viewBox="0 0 40 41" fill="none">
  <path d="M33.3333 7.5908H6.66665C4.83331 7.5908 3.34998 9.0908 3.34998 10.9241L3.33331 30.9241C3.33331 32.7575 4.83331 34.2575 6.66665 34.2575H33.3333C35.1666 34.2575 36.6666 32.7575 36.6666 30.9241V10.9241C36.6666 9.0908 35.1666 7.5908 33.3333 7.5908ZM32.6666 14.6741L20.8833 22.0408C20.35 22.3741 19.65 22.3741 19.1166 22.0408L7.33331 14.6741C7.16619 14.5803 7.01984 14.4536 6.90313 14.3016C6.78641 14.1495 6.70175 13.9754 6.65427 13.7897C6.60679 13.6041 6.59748 13.4107 6.62691 13.2213C6.65633 13.0319 6.72387 12.8505 6.82545 12.688C6.92702 12.5254 7.06052 12.3852 7.21786 12.2758C7.37519 12.1664 7.5531 12.09 7.74081 12.0513C7.92851 12.0126 8.12212 12.0124 8.3099 12.0507C8.49769 12.089 8.67575 12.165 8.83331 12.2741L20 19.2575L31.1666 12.2741C31.3242 12.165 31.5023 12.089 31.6901 12.0507C31.8778 12.0124 32.0714 12.0126 32.2592 12.0513C32.4469 12.09 32.6248 12.1664 32.7821 12.2758C32.9394 12.3852 33.0729 12.5254 33.1745 12.688C33.2761 12.8505 33.3436 13.0319 33.3731 13.2213C33.4025 13.4107 33.3932 13.6041 33.3457 13.7897C33.2982 13.9754 33.2136 14.1495 33.0968 14.3016C32.9801 14.4536 32.8338 14.5803 32.6666 14.6741Z" fill="white"/>
</svg>