<svg xmlns="http://www.w3.org/2000/svg" width="40" height="41" viewBox="0 0 40 41" fill="none">
  <g clip-path="url(#clip0_12_180)">
    <path d="M20 1.72412C9.39605 1.72412 0.800049 10.3201 0.800049 20.9241C0.800049 31.5281 9.39605 40.1241 20 40.1241C30.604 40.1241 39.2001 31.5281 39.2001 20.9241C39.2001 10.3201 30.604 1.72412 20 1.72412ZM15.3 28.8821H11.412V16.3701H15.3V28.8821ZM13.332 14.8341C12.104 14.8341 11.31 13.9641 11.31 12.8881C11.31 11.7901 12.128 10.9461 13.382 10.9461C14.636 10.9461 15.404 11.7901 15.428 12.8881C15.428 13.9641 14.636 14.8341 13.332 14.8341ZM29.5 28.8821H25.612V21.9481C25.612 20.3341 25.048 19.2381 23.642 19.2381C22.5681 19.2381 21.93 19.9801 21.6481 20.6941C21.5441 20.9481 21.518 21.3081 21.518 21.6661V28.8801H17.628V20.3601C17.628 18.7981 17.578 17.4921 17.526 16.3681H20.904L21.0821 18.1061H21.16C21.672 17.2901 22.9261 16.0861 25.024 16.0861C27.5821 16.0861 29.5 17.8001 29.5 21.4841V28.8821Z" fill="white"/>
  </g>
  <defs>
    <clipPath id="clip0_12_180">
      <rect width="40" height="40" fill="white" transform="translate(0 0.924133)"/>
    </clipPath>
  </defs>
</svg>