<svg xmlns="http://www.w3.org/2000/svg" width="132" height="132" viewBox="0 0 132 132" fill="none">
  <path d="M103.125 91.1311V69.9286C103.125 67.7405 102.256 65.6421 100.709 64.0949C99.1615 62.5478 97.0631 61.6786 94.875 61.6786H61.875V40.4761C65.7635 39.4721 69.1523 37.0844 71.4063 33.7605C73.6602 30.4367 74.6246 26.4049 74.1185 22.4209C73.6125 18.4369 71.6708 14.7743 68.6575 12.1195C65.6442 9.46467 61.766 8 57.75 8C53.734 8 49.8559 9.46467 46.8426 12.1195C43.8292 14.7743 41.8876 18.4369 41.3815 22.4209C40.8755 26.4049 41.8399 30.4367 44.0938 33.7605C46.3478 37.0844 49.7366 39.4721 53.625 40.4761V61.6786H20.625C18.437 61.6786 16.3386 62.5478 14.7914 64.0949C13.2442 65.6421 12.375 67.7405 12.375 69.9286V91.1311C8.48657 92.135 5.09776 94.5228 2.84381 97.8466C0.589857 101.17 -0.374482 105.202 0.13155 109.186C0.637582 113.17 2.57924 116.833 5.59258 119.488C8.60592 122.142 12.484 123.607 16.5 123.607C20.516 123.607 24.3942 122.142 27.4075 119.488C30.4208 116.833 32.3625 113.17 32.8685 109.186C33.3746 105.202 32.4102 101.17 30.1563 97.8466C27.9023 94.5228 24.5135 92.135 20.625 91.1311V69.9286H94.875V91.1311C90.9866 92.135 87.5978 94.5228 85.3438 97.8466C83.0899 101.17 82.1255 105.202 82.6315 109.186C83.1376 113.17 85.0792 116.833 88.0926 119.488C91.1059 122.142 94.984 123.607 99 123.607C103.016 123.607 106.894 122.142 109.907 119.488C112.921 116.833 114.862 113.17 115.369 109.186C115.875 105.202 114.91 101.17 112.656 97.8466C110.402 94.5228 107.014 92.135 103.125 91.1311ZM24.75 107.054C24.75 108.685 24.2662 110.28 23.3597 111.637C22.4531 112.994 21.1647 114.051 19.6572 114.676C18.1497 115.3 16.4909 115.463 14.8905 115.145C13.2902 114.827 11.8202 114.041 10.6664 112.887C9.51262 111.733 8.72689 110.263 8.40856 108.663C8.09023 107.063 8.25361 105.404 8.87803 103.896C9.50246 102.389 10.5599 101.1 11.9166 100.194C13.2733 99.2874 14.8683 98.8036 16.5 98.8036C18.6881 98.8036 20.7865 99.6728 22.3337 101.22C23.8808 102.767 24.75 104.866 24.75 107.054ZM49.5 24.5536C49.5 22.9219 49.9839 21.3268 50.8904 19.9701C51.7969 18.6134 53.0854 17.556 54.5929 16.9315C56.1004 16.3071 57.7592 16.1437 59.3595 16.4621C60.9599 16.7804 62.4299 17.5661 63.5837 18.7199C64.7374 19.8737 65.5232 21.3437 65.8415 22.9441C66.1598 24.5444 65.9965 26.2032 65.372 27.7107C64.7476 29.2182 63.6902 30.5067 62.3335 31.4132C60.9768 32.3197 59.3817 32.8036 57.75 32.8036C55.562 32.8036 53.4636 31.9344 51.9164 30.3872C50.3692 28.84 49.5 26.7416 49.5 24.5536ZM99 115.304C97.3683 115.304 95.7733 114.82 94.4166 113.913C93.0599 113.007 92.0025 111.718 91.378 110.211C90.7536 108.703 90.5902 107.044 90.9086 105.444C91.2269 103.844 92.0126 102.374 93.1664 101.22C94.3202 100.066 95.7902 99.2804 97.3905 98.9621C98.9909 98.6437 100.65 98.8071 102.157 99.4315C103.665 100.056 104.953 101.113 105.86 102.47C106.766 103.827 107.25 105.422 107.25 107.054C107.25 109.242 106.381 111.34 104.834 112.887C103.286 114.434 101.188 115.304 99 115.304Z" fill="#4A55A2"/>
</svg>