<svg xmlns="http://www.w3.org/2000/svg" width="132" height="132" viewBox="0 0 132 132" fill="none">
  <path d="M11 115.5C9.44169 115.5 8.13452 114.972 7.07852 113.916C6.02252 112.86 5.49635 111.555 5.50002 110C5.50002 108.442 6.02802 107.135 7.08402 106.079C8.14002 105.023 9.44535 104.496 11 104.5H121C122.558 104.5 123.866 105.028 124.922 106.084C125.978 107.14 126.504 108.445 126.5 110C126.5 111.558 125.972 112.866 124.916 113.922C123.86 114.978 122.555 115.504 121 115.5H11ZM22 99C18.975 99 16.3845 97.922 14.2285 95.766C12.0725 93.61 10.9964 91.0213 11 88V27.5C11 24.475 12.078 21.8845 14.234 19.7285C16.39 17.5725 18.9787 16.4963 22 16.5H110C113.025 16.5 115.616 17.578 117.772 19.734C119.928 21.89 121.004 24.4787 121 27.5V88C121 91.025 119.922 93.6155 117.766 95.7715C115.61 97.9275 113.021 99.0037 110 99H22ZM22 88H110V27.5H22V88Z" fill="#4A55A2"/>
</svg>