<svg xmlns="http://www.w3.org/2000/svg" width="132" height="132" viewBox="0 0 132 132" fill="none">
  <path d="M119.839 8.14014L123.084 11.3851C127.556 15.8621 126.879 23.7986 121.561 29.1116L54.6425 96.0301L32.9615 103.961C30.239 104.962 27.588 103.664 27.049 101.074C26.8668 100.134 26.9526 99.1619 27.2965 98.2686L35.3815 76.4006L102.113 9.66364C107.431 4.35064 115.368 3.66314 119.839 8.14014ZM51.722 14.7951C52.4443 14.7951 53.1595 14.9374 53.8267 15.2138C54.494 15.4902 55.1003 15.8953 55.6111 16.4061C56.1218 16.9168 56.5269 17.5231 56.8033 18.1904C57.0797 18.8577 57.222 19.5729 57.222 20.2951C57.222 21.0174 57.0797 21.7326 56.8033 22.3999C56.5269 23.0672 56.1218 23.6735 55.6111 24.1842C55.1003 24.6949 54.494 25.1001 53.8267 25.3765C53.1595 25.6529 52.4443 25.7951 51.722 25.7951H29.722C26.8046 25.7951 24.0067 26.9541 21.9438 29.017C19.8809 31.0799 18.722 33.8778 18.722 36.7951V102.795C18.722 105.713 19.8809 108.51 21.9438 110.573C24.0067 112.636 26.8046 113.795 29.722 113.795H95.722C98.6394 113.795 101.437 112.636 103.5 110.573C105.563 108.51 106.722 105.713 106.722 102.795V80.7951C106.722 79.3364 107.301 77.9375 108.333 76.9061C109.364 75.8746 110.763 75.2951 112.222 75.2951C113.681 75.2951 115.08 75.8746 116.111 76.9061C117.143 77.9375 117.722 79.3364 117.722 80.7951V102.795C117.722 108.63 115.404 114.226 111.278 118.351C107.153 122.477 101.557 124.795 95.722 124.795H29.722C23.8872 124.795 18.2914 122.477 14.1656 118.351C10.0398 114.226 7.72198 108.63 7.72198 102.795V36.7951C7.72198 30.9604 10.0398 25.3646 14.1656 21.2388C18.2914 17.113 23.8872 14.7951 29.722 14.7951H51.722Z" fill="#4A55A2"/>
</svg>