<svg xmlns="http://www.w3.org/2000/svg" width="30" height="30" viewBox="0 0 30 30" fill="none">
  <path d="M14.6994 2.71504C21.4425 2.71504 26.9085 8.18105 26.9085 14.9241C26.9085 21.6672 21.4425 27.1332 14.6994 27.1332C12.5418 27.1367 10.4221 26.5657 8.55823 25.4789L2.4952 27.1332L4.14587 21.0677C3.05815 19.2033 2.48671 17.0827 2.49031 14.9241C2.49031 8.18105 7.95632 2.71504 14.6994 2.71504ZM10.5385 9.18586L10.2944 9.19563C10.1363 9.20525 9.98179 9.24679 9.84019 9.31772C9.70774 9.39272 9.58684 9.48648 9.48124 9.59609C9.33473 9.73405 9.25171 9.8537 9.16258 9.96968C8.71099 10.5568 8.46785 11.2777 8.47155 12.0184C8.47399 12.6166 8.63026 13.199 8.87445 13.7435C9.3738 14.8448 10.1955 16.0107 11.2796 17.0912C11.5409 17.3513 11.7973 17.6126 12.0732 17.8555C13.4204 19.0416 15.0257 19.8969 16.7615 20.3535L17.455 20.4597C17.6809 20.4719 17.9067 20.4549 18.1338 20.4439C18.4894 20.4255 18.8366 20.3292 19.1508 20.1618C19.3107 20.0795 19.4668 19.9899 19.6184 19.8932C19.6184 19.8932 19.6709 19.859 19.7711 19.7834C19.9359 19.6613 20.0372 19.5746 20.174 19.4317C20.2753 19.3267 20.3632 19.2034 20.4304 19.063C20.5256 18.864 20.6208 18.4843 20.6599 18.1681C20.6892 17.9263 20.6806 17.7945 20.677 17.7127C20.6721 17.5821 20.5634 17.4465 20.445 17.3891L19.7344 17.0705C19.7344 17.0705 18.6722 16.6078 18.0227 16.3123C17.9548 16.2826 17.8819 16.2657 17.8078 16.2622C17.7243 16.2537 17.6399 16.2631 17.5603 16.2898C17.4807 16.3166 17.4077 16.36 17.3463 16.4173C17.3402 16.4149 17.2584 16.4845 16.3757 17.554C16.325 17.6221 16.2553 17.6735 16.1752 17.7018C16.0952 17.73 16.0086 17.7338 15.9264 17.7127C15.8469 17.6914 15.769 17.6644 15.6932 17.6321C15.5418 17.5686 15.4893 17.5442 15.3856 17.5003C14.6848 17.1945 14.0361 16.7813 13.4626 16.2757C13.3088 16.1414 13.1659 15.9949 13.0194 15.8532C12.5391 15.3932 12.1205 14.8729 11.7741 14.3051L11.7021 14.1891C11.6503 14.1112 11.6085 14.0271 11.5775 13.9389C11.5311 13.7594 11.652 13.6153 11.652 13.6153C11.652 13.6153 11.9487 13.2906 12.0867 13.1147C12.221 12.9438 12.3345 12.7778 12.4078 12.6593C12.5518 12.4274 12.597 12.1893 12.5213 12.0049C12.1794 11.1698 11.8254 10.3384 11.4616 9.51306C11.3895 9.34946 11.1759 9.23225 10.9817 9.20906C10.9158 9.20173 10.8499 9.19441 10.7839 9.18952C10.62 9.18138 10.4557 9.18301 10.2919 9.19441L10.5373 9.18464L10.5385 9.18586Z" fill="#F5F5FA"/>
</svg>