<svg xmlns="http://www.w3.org/2000/svg" width="100" height="98" viewBox="0 0 100 98" fill="none">
  <g clip-path="url(#clip0_1_58)">
    <path d="M83.406 0H16.7423C7.59178 0 0.173828 7.41795 0.173828 16.5685V80.7371C0.173828 89.8876 7.59178 97.3056 16.7423 97.3056H83.406C92.5565 97.3056 99.9744 89.8876 99.9744 80.7371V16.5685C99.9744 7.41795 92.5565 0 83.406 0Z" fill="#470137"/>
    <path d="M52.6385 25.5895L40.1856 46.1434L53.5086 67.9689C53.5944 68.1217 53.6182 68.3011 53.5757 68.471C53.555 68.5435 53.5106 68.5615 53.4423 68.5642L53.3667 68.563L53.2747 68.5607C53.2248 68.5607 53.1691 68.563 53.1071 68.5732H43.5013L43.3126 68.5701C42.7949 68.5564 42.4218 68.4823 42.1945 68.1026C41.3057 66.3711 40.4129 64.6416 39.5163 62.9142C38.7142 61.3734 37.8902 59.8442 37.0446 58.3269L36.6712 57.6587C35.6598 55.8612 34.6667 54.0535 33.692 52.2359H33.6249C32.7248 54.0345 31.7985 55.8199 30.8465 57.5916C29.8863 59.3771 28.9378 61.1517 28.001 62.9142C27.0636 64.6781 26.104 66.4301 25.1224 68.1697C24.9645 68.5244 24.7021 68.5985 24.3368 68.6106L24.1848 68.6129H15.0129L14.9731 68.6141L14.8421 68.6258C14.7692 68.6301 14.7256 68.6145 14.7115 68.5046C14.6864 68.3413 14.7222 68.1745 14.8121 68.036L27.7332 46.8127L15.1466 25.5232C15.0129 25.3455 14.9907 25.2004 15.0795 25.0882C15.1289 25.031 15.191 24.9861 15.2607 24.957C15.3305 24.9279 15.4061 24.9154 15.4815 24.9205H24.9212C25.1271 24.9093 25.3329 24.9436 25.5239 25.0211C25.6837 25.112 25.8214 25.2379 25.9254 25.3895C26.7289 27.175 27.6217 28.9605 28.6037 30.7452C29.5781 32.5187 30.5712 34.2818 31.5829 36.0343C32.5791 37.7596 33.506 39.524 34.3613 41.3233H34.4284C35.305 39.5245 36.2089 37.739 37.1398 35.9676C38.0539 34.2269 38.9915 32.4746 39.9513 30.7117C40.899 28.9714 41.8252 27.2196 42.7298 25.4566C42.7812 25.2913 42.8732 25.1416 42.9976 25.0211C43.163 24.9374 43.3488 24.9025 43.5332 24.9205H52.3036C52.3842 24.9004 52.4692 24.9071 52.5458 24.9394C52.6223 24.9718 52.6863 25.0281 52.728 25.0999C52.7698 25.1718 52.7871 25.2552 52.7774 25.3378C52.7676 25.4203 52.7313 25.4974 52.674 25.5575L52.6389 25.5903L52.6385 25.5895ZM72.314 69.4367L71.8524 69.4418C68.7709 69.4887 65.7175 68.8484 62.9144 67.5674C60.3032 66.3588 58.1204 64.386 56.6547 61.9099C55.1768 59.4555 54.4181 56.3967 54.3799 52.7349L54.3784 52.4367C54.3533 49.3639 55.1386 46.3389 56.6551 43.6663C58.1728 41.0211 60.3854 38.8416 63.0532 37.364L63.2828 37.2393C66.1833 35.6323 69.6872 34.8289 73.7939 34.8289L73.9732 34.8308L74.1783 34.8374L74.4083 34.8476L74.664 34.8624L75.0936 34.8928L75.5801 34.9318L75.9361 34.963V21.7737C75.9361 21.4618 76.0702 21.3051 76.3376 21.3051H84.7735C84.828 21.2973 84.8837 21.3023 84.936 21.3197C84.9882 21.3371 85.0358 21.3665 85.0747 21.4054C85.1137 21.4444 85.1431 21.4919 85.1605 21.5442C85.1779 21.5965 85.1829 21.6521 85.175 21.7066V61.2741C85.175 61.9384 85.2008 62.6541 85.2522 63.4198L85.377 65.1566L85.4433 66.1612C85.4515 66.3003 85.4175 66.4387 85.3458 66.5582C85.2741 66.6777 85.168 66.7728 85.0413 66.831C82.865 67.7385 80.5983 68.4116 78.2794 68.8391C76.3108 69.2024 74.3156 69.4023 72.314 69.4367ZM75.9361 61.14V42.8628C75.5743 42.7648 75.2048 42.6977 74.8316 42.6621C74.3755 42.6162 73.9174 42.5938 73.459 42.595C71.8344 42.5789 70.2289 42.9459 68.7727 43.6663C67.3542 44.3714 66.1431 45.4326 65.2578 46.7461C64.374 48.0388 63.9167 49.7268 63.8867 51.8102L63.8852 52.0351C63.8526 53.4944 64.0909 54.9471 64.588 56.3195C64.9928 57.4256 65.6325 58.4307 66.4632 59.2656C67.2582 60.0336 68.2206 60.6065 69.2748 60.9392C70.3883 61.2998 71.5521 61.4807 72.7226 61.4752C73.3471 61.4752 73.9272 61.4526 74.4632 61.4078C74.8908 61.3757 75.3145 61.3052 75.7295 61.1973L75.9361 61.14Z" fill="#FF61F6"/>
  </g>
  <defs>
    <clipPath id="clip0_1_58">
      <rect width="99.8169" height="97.4615" fill="white" transform="translate(0.165649)"/>
    </clipPath>
  </defs>
</svg>